<svg width="140" height="140" viewBox="0 0 140 140" fill="none" xmlns="http://www.w3.org/2000/svg">
<g id="mdi:cloud-percent" clip-path="url(#clip0_13_47)">
<path id="Vector" d="M101.831 95.7363C101.486 91.0945 99.3529 86.7677 95.8815 83.6669C100.667 77.1006 102.426 69.8757 101.184 61.9587C99.9419 54.0417 96.0545 47.7028 89.4882 42.9175C84.1678 39.0401 78.2328 37.1381 71.6678 37.3032C65.1028 37.4683 59.2895 39.5733 54.1205 43.6947C49.2243 41.57 44.1271 41.2066 38.9638 42.7026C33.8005 44.1986 29.6743 47.1722 26.4841 51.5498C22.7785 56.6344 21.4312 62.3035 22.4576 68.465C23.4685 74.7183 26.6527 79.6168 31.7037 83.2978L72.1117 112.746C76.3209 115.813 80.9701 116.933 86.0683 116.163C91.1574 115.335 95.2403 112.845 98.3078 108.636C101.13 104.763 102.304 100.464 101.831 95.7363ZM68.5578 53.5974C71.1844 55.5116 71.7689 59.2372 69.8548 61.8637C67.9406 64.4903 64.215 65.0748 61.5884 63.1607C58.9619 61.2465 58.3774 57.5209 60.2915 54.8944C62.2056 52.2678 65.9313 51.6833 68.5578 53.5974ZM66.2464 92.8495C63.6199 90.9354 63.0354 87.2097 64.9495 84.5832C66.8636 81.9567 70.5893 81.3722 73.2158 83.2863C75.8423 85.2004 76.4269 88.9261 74.5127 91.5526C72.5986 94.1791 68.8729 94.7636 66.2464 92.8495ZM48.1575 79.8216L47.0616 72.836L86.6467 66.6254L87.7427 73.611L48.1575 79.8216Z" fill="white"/>
</g>
<defs>
<clipPath id="clip0_13_47">
<rect width="100" height="100" fill="white" transform="translate(58.8962) rotate(36.0834)"/>
</clipPath>
</defs>
</svg>
