<svg width="150" height="150" viewBox="0 0 150 150" fill="none" xmlns="http://www.w3.org/2000/svg">
<g id="typcn:th-list">
<path id="Vector" d="M118.75 106.25H75C68.1062 106.25 62.5 111.856 62.5 118.75C62.5 125.644 68.1062 131.25 75 131.25H118.75C125.644 131.25 131.25 125.644 131.25 118.75C131.25 111.856 125.644 106.25 118.75 106.25ZM118.75 62.5H75C68.1062 62.5 62.5 68.1063 62.5 75C62.5 81.8937 68.1062 87.5 75 87.5H118.75C125.644 87.5 131.25 81.8937 131.25 75C131.25 68.1063 125.644 62.5 118.75 62.5ZM118.75 18.75H75C68.1062 18.75 62.5 24.3562 62.5 31.25C62.5 38.1438 68.1062 43.75 75 43.75H118.75C125.644 43.75 131.25 38.1438 131.25 31.25C131.25 24.3562 125.644 18.75 118.75 18.75Z" fill="white"/>
<path id="Vector_2" d="M31.25 134.375C39.8794 134.375 46.875 127.379 46.875 118.75C46.875 110.121 39.8794 103.125 31.25 103.125C22.6206 103.125 15.625 110.121 15.625 118.75C15.625 127.379 22.6206 134.375 31.25 134.375Z" fill="white"/>
<path id="Vector_3" d="M31.25 90.625C39.8794 90.625 46.875 83.6294 46.875 75C46.875 66.3706 39.8794 59.375 31.25 59.375C22.6206 59.375 15.625 66.3706 15.625 75C15.625 83.6294 22.6206 90.625 31.25 90.625Z" fill="white"/>
<path id="Vector_4" d="M31.25 46.875C39.8794 46.875 46.875 39.8794 46.875 31.25C46.875 22.6206 39.8794 15.625 31.25 15.625C22.6206 15.625 15.625 22.6206 15.625 31.25C15.625 39.8794 22.6206 46.875 31.25 46.875Z" fill="white"/>
</g>
</svg>
