<svg width="233" height="234" viewBox="0 0 233 234" fill="none" xmlns="http://www.w3.org/2000/svg">
<g id="mdi:cloud-percent" clip-path="url(#clip0_13_49)">
<path id="Vector" d="M193.499 101.169C186.231 96.0284 177.251 93.9087 168.451 95.2559C164.588 80.2039 156.071 68.8146 142.879 61.0109C129.687 53.2072 115.604 51.2269 100.552 55.0897C88.3556 58.2196 78.3257 64.6605 70.5787 74.5469C62.8317 84.4333 58.8615 95.5719 58.6504 108.214C49.5564 112.851 42.8162 119.929 38.7388 129.367C34.6614 138.806 34.0261 148.512 36.6013 158.547C39.5926 170.203 46.3163 179.091 56.6556 185.076C67.1117 191.196 78.214 192.46 89.7925 189.489L182.42 165.717C192.069 163.241 199.38 157.745 204.449 149.286C209.421 140.77 210.718 131.716 208.241 122.068C205.963 113.191 201.049 106.224 193.499 101.169ZM90.8324 98.9676C96.8532 97.4225 103.061 101.095 104.606 107.116C106.151 113.136 102.479 119.344 96.4583 120.89C90.4375 122.435 84.2296 118.762 82.6844 112.742C81.1393 106.721 84.8116 100.513 90.8324 98.9676ZM145.928 150.153C139.907 151.699 133.699 148.026 132.154 142.006C130.609 135.985 134.281 129.777 140.302 128.232C146.323 126.686 152.531 130.359 154.076 136.38C155.621 142.4 151.949 148.608 145.928 150.153ZM104.691 160.983L93.051 154.098L132.07 88.138L143.709 95.0236L104.691 160.983Z" fill="white"/>
</g>
<defs>
<clipPath id="clip0_13_49">
<rect width="191.259" height="191.259" fill="white" transform="translate(0 47.9852) rotate(-14.3934)"/>
</clipPath>
</defs>
</svg>
