<svg width="74" height="75" viewBox="0 0 74 75" fill="none" xmlns="http://www.w3.org/2000/svg">
<g id="solar:documents-bold">
<g id="Group">
<path id="Vector" d="M5.81885 31.3833V43.6167C5.81885 52.2687 5.81885 56.5932 8.50712 59.2815C9.17078 59.9451 9.93536 60.4436 10.8406 60.8229C10.8202 60.6864 10.8008 60.5498 10.7825 60.413C10.4063 57.6055 10.4063 54.1037 10.4063 50.0361V24.967C10.4063 20.8994 10.4063 17.3945 10.7825 14.59L10.8437 14.1802C9.96978 14.533 9.17532 15.057 8.50712 15.7216C5.81885 18.4099 5.81885 22.7344 5.81885 31.3833ZM66.9855 31.3833V43.6167C66.9855 52.2687 66.9855 56.5932 64.2972 59.2815C63.6336 59.9451 62.869 60.4436 61.9637 60.8229L62.0218 60.413C62.398 57.6055 62.398 54.1037 62.398 50.0361V24.967C62.398 20.8994 62.398 17.3945 62.0218 14.59C62.0025 14.4533 61.9822 14.3167 61.9607 14.1802C62.869 14.5564 63.6336 15.058 64.2972 15.7216C66.9855 18.4099 66.9855 22.7344 66.9855 31.3833Z" fill="white"/>
<path id="Vector_2" fill-rule="evenodd" clip-rule="evenodd" d="M17.6822 9.60494C14.9939 12.2902 14.9939 16.6177 14.9939 25.2667V49.7333C14.9939 58.3823 14.9939 62.7098 17.6822 65.3951C20.3674 68.0833 24.6949 68.0833 33.3439 68.0833H39.4606C48.1095 68.0833 52.4371 68.0833 55.1223 65.3951C57.8106 62.7098 57.8106 58.3823 57.8106 49.7333V25.2667C57.8106 16.6177 57.8106 12.2902 55.1223 9.60494C52.4371 6.91667 48.1095 6.91667 39.4606 6.91667H33.3439C24.6949 6.91667 20.3674 6.91667 17.6822 9.60494ZM24.9335 52.7917C24.9335 52.1833 25.1751 51.5999 25.6053 51.1697C26.0355 50.7396 26.6189 50.4979 27.2272 50.4979H36.4022C37.0106 50.4979 37.594 50.7396 38.0242 51.1697C38.4543 51.5999 38.696 52.1833 38.696 52.7917C38.696 53.4 38.4543 53.9834 38.0242 54.4136C37.594 54.8438 37.0106 55.0854 36.4022 55.0854H27.2272C26.6189 55.0854 26.0355 54.8438 25.6053 54.4136C25.1751 53.9834 24.9335 53.4 24.9335 52.7917ZM27.2272 38.2646C26.6189 38.2646 26.0355 38.5062 25.6053 38.9364C25.1751 39.3666 24.9335 39.95 24.9335 40.5583C24.9335 41.1667 25.1751 41.7501 25.6053 42.1803C26.0355 42.6104 26.6189 42.8521 27.2272 42.8521H45.5772C46.1856 42.8521 46.769 42.6104 47.1992 42.1803C47.6293 41.7501 47.871 41.1667 47.871 40.5583C47.871 39.95 47.6293 39.3666 47.1992 38.9364C46.769 38.5062 46.1856 38.2646 45.5772 38.2646H27.2272ZM24.9335 28.325C24.9335 27.7167 25.1751 27.1332 25.6053 26.7031C26.0355 26.2729 26.6189 26.0313 27.2272 26.0313H45.5772C46.1856 26.0313 46.769 26.2729 47.1992 26.7031C47.6293 27.1332 47.871 27.7167 47.871 28.325C47.871 28.9333 47.6293 29.5168 47.1992 29.9469C46.769 30.3771 46.1856 30.6188 45.5772 30.6188H27.2272C26.6189 30.6188 26.0355 30.3771 25.6053 29.9469C25.1751 29.5168 24.9335 28.9333 24.9335 28.325Z" fill="white"/>
</g>
</g>
</svg>
