<svg width="74" height="60" viewBox="0 0 74 60" fill="none" xmlns="http://www.w3.org/2000/svg">
<g id="fa-solid:user-friends" clip-path="url(#clip0_15_66)">
<path id="Vector" d="M22.02 30.1667C29.1192 30.1667 34.865 24.4208 34.865 17.3217C34.865 10.2225 29.1192 4.47666 22.02 4.47666C14.9208 4.47666 9.175 10.2225 9.175 17.3217C9.175 24.4208 14.9208 30.1667 22.02 30.1667ZM30.828 33.8367H29.8761C27.4906 34.9835 24.8413 35.6717 22.02 35.6717C19.1987 35.6717 16.5609 34.9835 14.1639 33.8367H13.212C5.91787 33.8367 0 39.7545 0 47.0487V50.3517C0 53.3909 2.46578 55.8567 5.505 55.8567H38.535C41.5742 55.8567 44.04 53.3909 44.04 50.3517V47.0487C44.04 39.7545 38.1221 33.8367 30.828 33.8367ZM55.05 30.1667C61.1284 30.1667 66.06 25.2351 66.06 19.1567C66.06 13.0782 61.1284 8.14666 55.05 8.14666C48.9716 8.14666 44.04 13.0782 44.04 19.1567C44.04 25.2351 48.9716 30.1667 55.05 30.1667ZM60.555 33.8367H60.1192C58.525 34.3872 56.8391 34.7542 55.05 34.7542C53.2609 34.7542 51.575 34.3872 49.9808 33.8367H49.545C47.2054 33.8367 45.0493 34.5133 43.1569 35.6028C45.9553 38.6191 47.71 42.6217 47.71 47.0487V51.4527C47.71 51.705 47.6527 51.9458 47.6412 52.1867H67.895C70.9342 52.1867 73.4 49.7209 73.4 46.6817C73.4 39.5825 67.6542 33.8367 60.555 33.8367Z" fill="#29A5EB"/>
</g>
<defs>
<clipPath id="clip0_15_66">
<rect width="73.4" height="58.72" fill="white" transform="translate(0 0.806664)"/>
</clipPath>
</defs>
</svg>
