<svg width="75" height="74" viewBox="0 0 75 74" fill="none" xmlns="http://www.w3.org/2000/svg">
<g id="ic:baseline-help">
<path id="Vector" d="M37.3133 6.58334C20.4313 6.58334 6.72998 20.2847 6.72998 37.1667C6.72998 54.0487 20.4313 67.75 37.3133 67.75C54.1953 67.75 67.8966 54.0487 67.8966 37.1667C67.8966 20.2847 54.1953 6.58334 37.3133 6.58334ZM40.3716 58.575H34.255V52.4583H40.3716V58.575ZM46.7024 34.8729L43.9499 37.6866C41.7479 39.9192 40.3716 41.7542 40.3716 46.3417H34.255V44.8125C34.255 41.4483 35.6312 38.39 37.8332 36.1574L41.6256 32.3039C42.7571 31.2029 43.43 29.6738 43.43 27.9917C43.43 24.6275 40.6775 21.875 37.3133 21.875C33.9491 21.875 31.1966 24.6275 31.1966 27.9917H25.08C25.08 21.2328 30.5544 15.7583 37.3133 15.7583C44.0722 15.7583 49.5466 21.2328 49.5466 27.9917C49.5466 30.683 48.4456 33.1297 46.7024 34.8729Z" fill="#29A5EB"/>
</g>
</svg>
