<svg width="74" height="74" viewBox="0 0 74 74" fill="none" xmlns="http://www.w3.org/2000/svg">
<g id="mingcute:send-fill" clip-path="url(#clip0_15_58)">
<g id="Group">
<path id="Vector" d="M62.0753 17.6364C63.3965 13.9816 59.8549 10.4401 56.2002 11.7644L11.5333 27.9185C7.86631 29.2458 7.42285 34.2492 10.7962 36.2035L25.0541 44.4579L37.786 31.7261C38.3628 31.169 39.1353 30.8607 39.9372 30.8677C40.7391 30.8747 41.5062 31.1963 42.0732 31.7633C42.6403 32.3304 42.9619 33.0975 42.9689 33.8993C42.9758 34.7012 42.6676 35.4738 42.1105 36.0506L29.3786 48.7824L37.6361 63.0404C39.5873 66.4137 44.5908 65.9672 45.9181 62.3033L62.0753 17.6364Z" fill="#29A5EB"/>
</g>
</g>
<defs>
<clipPath id="clip0_15_58">
<rect width="73.4" height="73.4" fill="white" transform="translate(0.189941 0.246668)"/>
</clipPath>
</defs>
</svg>
