<svg width="74" height="74" viewBox="0 0 74 74" fill="none" xmlns="http://www.w3.org/2000/svg">
<g id="uil:university">
<path id="Vector" d="M64.6918 30.7167C65.5029 30.7167 66.2809 30.3945 66.8544 29.8209C67.4279 29.2474 67.7502 28.4695 67.7502 27.6583V18.4833C67.7501 17.8416 67.548 17.2162 67.1726 16.6958C66.7971 16.1754 66.2673 15.7864 65.6583 15.584L38.1333 6.40904C37.5058 6.20053 36.8278 6.20053 36.2004 6.40904L8.6754 15.584C8.0664 15.7864 7.53658 16.1754 7.1611 16.6958C6.78561 17.2162 6.58352 17.8416 6.5835 18.4833V27.6583C6.5835 28.4695 6.90571 29.2474 7.47926 29.8209C8.05281 30.3945 8.83071 30.7167 9.64183 30.7167H12.7002V52.6877C10.9162 53.3161 9.37049 54.4813 8.27529 56.0233C7.1801 57.5654 6.58911 59.4086 6.5835 61.3V67.4167C6.5835 68.2278 6.90571 69.0057 7.47926 69.5792C8.05281 70.1528 8.83071 70.475 9.64183 70.475H64.6918C65.5029 70.475 66.2809 70.1528 66.8544 69.5792C67.4279 69.0057 67.7502 68.2278 67.7502 67.4167V61.3C67.7445 59.4086 67.1536 57.5654 66.0584 56.0233C64.9632 54.4813 63.4175 53.3161 61.6335 52.6877V30.7167H64.6918ZM61.6335 64.3583H12.7002V61.3C12.701 60.4891 13.0234 59.7117 13.5968 59.1383C14.1702 58.565 14.9476 58.2425 15.7585 58.2417H58.5752C59.386 58.2425 60.1635 58.565 60.7368 59.1383C61.3102 59.7117 61.6327 60.4891 61.6335 61.3V64.3583ZM18.8168 52.125V30.7167H24.9335V52.125H18.8168ZM31.0502 52.125V30.7167H43.2835V52.125H31.0502ZM49.4002 52.125V30.7167H55.5168V52.125H49.4002ZM12.7002 24.6V20.6853L37.1668 12.5318L61.6335 20.6884V24.6H12.7002Z" fill="#29A5EB"/>
</g>
</svg>
