<svg width="75" height="74" viewBox="0 0 75 74" fill="none" xmlns="http://www.w3.org/2000/svg">
<g id="zondicons:light-bulb" clip-path="url(#clip0_15_62)">
<path id="Vector" d="M26.3033 49.0544C21.0333 46.5547 16.7708 42.3359 14.2169 37.0919C11.6629 31.8479 10.9695 25.8909 12.2507 20.2005C13.5319 14.5101 16.7114 9.4251 21.2663 5.78167C25.8213 2.13824 31.4805 0.15332 37.3133 0.15332C43.1462 0.15332 48.8054 2.13824 53.3603 5.78167C57.9153 9.4251 61.0948 14.5101 62.3759 20.2005C63.6571 25.8909 62.9637 31.8479 60.4098 37.0919C57.8558 42.3359 53.5933 46.5547 48.3233 49.0544V58.8533H26.3033V49.0544ZM26.3033 62.5233H48.3233V68.0283C48.3233 71.0744 45.8644 73.5333 42.8183 73.5333H31.8083C30.3483 73.5333 28.9481 72.9533 27.9157 71.921C26.8833 70.8886 26.3033 69.4884 26.3033 68.0283V62.5233ZM33.6433 43.8063V51.5133H40.9833V43.8063C45.4389 42.8969 49.398 40.3654 52.0931 36.7027C54.7883 33.0401 56.0275 28.5071 55.5704 23.9827C55.1133 19.4584 52.9926 15.2648 49.6194 12.2152C46.2462 9.16558 41.8607 7.47708 37.3133 7.47708C32.7659 7.47708 28.3805 9.16558 25.0072 12.2152C21.634 15.2648 19.5133 19.4584 19.0562 23.9827C18.5992 28.5071 19.8384 33.0401 22.5335 36.7027C25.2287 40.3654 29.1878 42.8969 33.6433 43.8063Z" fill="#29A5EB"/>
</g>
<defs>
<clipPath id="clip0_15_62">
<rect width="73.4" height="73.4" fill="white" transform="translate(0.613281 0.133331)"/>
</clipPath>
</defs>
</svg>
