<svg width="250" height="250" viewBox="0 0 250 250" fill="none" xmlns="http://www.w3.org/2000/svg">
<g id="&#209;&#132;&#208;&#190;&#209;&#130;&#208;&#190;">
<rect id="Rectangle 10" width="250" height="250" rx="10" fill="white"/>
<path id="Vector" d="M150.973 179.53C150.492 179.464 150.003 179.517 149.547 179.686C149.091 179.855 148.683 180.134 148.357 180.499C148.026 180.858 147.783 181.292 147.648 181.764C147.513 182.237 147.491 182.735 147.582 183.218C149.28 192.281 154.998 204.719 172.552 212.463C174.632 213.376 177.845 214.088 181.92 214.982C197.171 218.332 222.677 223.945 228.943 247.683C229.048 248.08 229.229 248.452 229.475 248.778C229.722 249.104 230.029 249.377 230.38 249.582C230.731 249.787 231.118 249.92 231.519 249.974C231.92 250.027 232.328 249.999 232.719 249.893C233.109 249.786 233.476 249.602 233.796 249.352C234.117 249.101 234.386 248.789 234.588 248.433C234.791 248.077 234.922 247.684 234.974 247.276C235.026 246.869 234.999 246.455 234.894 246.058C227.65 218.638 198.753 212.282 183.224 208.869C179.63 208.075 176.522 207.394 175.002 206.719C164.452 202.069 157.639 195.169 154.684 186.181C183.994 188.393 197.264 176.536 197.848 175.999C198.209 175.667 198.487 175.254 198.66 174.792C198.832 174.331 198.895 173.834 198.842 173.343C198.789 172.852 198.622 172.381 198.355 171.968C198.089 171.555 197.729 171.212 197.307 170.968C180.393 161.155 180.393 127.247 180.393 114.478C180.393 78.7699 156.709 50.4625 126.348 50.0188C126.058 50.009 125.769 50.0027 125.48 50C94.6747 50.175 69.606 78.5137 69.606 113.178C69.606 125.947 69.606 159.861 52.6925 169.667C52.2565 169.925 51.889 170.286 51.6218 170.72C51.3547 171.154 51.196 171.648 51.1596 172.159C51.1232 172.67 51.2102 173.182 51.413 173.651C51.6158 174.119 51.9282 174.531 52.3232 174.849C53.1726 175.518 71.9449 190.106 95.044 185.674C91.9543 194.287 85.2332 200.913 74.9915 205.431C73.5082 206.088 70.5539 206.807 67.1318 207.632C51.4985 211.407 22.3922 218.438 15.1049 246.052C15.0002 246.449 14.9735 246.863 15.0264 247.27C15.0792 247.677 15.2106 248.07 15.4129 248.426C15.8215 249.144 16.4945 249.669 17.2837 249.883C18.073 250.098 18.9139 249.985 19.6214 249.571C20.329 249.156 20.8452 248.472 21.0566 247.671C27.39 223.645 53.1664 217.426 68.5597 213.701C72.4188 212.769 75.4654 212.032 77.4473 211.163C95.0009 203.419 100.713 190.981 102.417 181.918C102.519 181.387 102.482 180.838 102.31 180.327C102.138 179.815 101.838 179.357 101.439 178.999C101.043 178.638 100.561 178.388 100.041 178.274C99.5202 178.16 98.9797 178.186 98.4722 178.349C81.8111 183.674 66.4178 176.349 59.6906 172.286C75.7609 158.623 75.7609 127.178 75.7609 113.178C75.7609 81.9451 98.0783 56.4065 125.738 56.2378L126.391 56.2753C153.669 56.669 174.238 81.6888 174.238 114.478C174.238 128.485 174.238 159.998 190.376 173.661C184.819 176.887 172.146 182.105 150.973 179.53Z" fill="#AFF26D"/>
</g>
</svg>
