<svg width="80" height="80" viewBox="0 0 80 80" fill="none" xmlns="http://www.w3.org/2000/svg">
<g id="solar:card-bold">
<path id="Vector" fill-rule="evenodd" clip-rule="evenodd" d="M33.3333 13.3333H46.6667C59.2367 13.3333 65.5233 13.3333 69.4267 17.24C72.24 20.05 73.0267 24.0966 73.2467 30.8333H6.75332C6.97332 24.0966 7.75999 20.05 10.5733 17.24C14.4767 13.3333 20.7633 13.3333 33.3333 13.3333ZM46.6667 66.6666H33.3333C20.7633 66.6666 14.4767 66.6666 10.5733 62.76C6.66666 58.8566 6.66666 52.57 6.66666 40C6.66666 38.5266 6.66666 37.14 6.67332 35.8333H73.3267C73.3333 37.14 73.3333 38.5266 73.3333 40C73.3333 52.57 73.3333 58.8566 69.4267 62.76C65.5233 66.6666 59.2367 66.6666 46.6667 66.6666ZM20 50.8333C19.3369 50.8333 18.7011 51.0967 18.2322 51.5655C17.7634 52.0344 17.5 52.6703 17.5 53.3333C17.5 53.9964 17.7634 54.6322 18.2322 55.1011C18.7011 55.5699 19.3369 55.8333 20 55.8333H33.3333C33.9964 55.8333 34.6322 55.5699 35.1011 55.1011C35.5699 54.6322 35.8333 53.9964 35.8333 53.3333C35.8333 52.6703 35.5699 52.0344 35.1011 51.5655C34.6322 51.0967 33.9964 50.8333 33.3333 50.8333H20ZM41.6667 50.8333C41.0036 50.8333 40.3677 51.0967 39.8989 51.5655C39.43 52.0344 39.1667 52.6703 39.1667 53.3333C39.1667 53.9964 39.43 54.6322 39.8989 55.1011C40.3677 55.5699 41.0036 55.8333 41.6667 55.8333H46.6667C47.3297 55.8333 47.9656 55.5699 48.4344 55.1011C48.9033 54.6322 49.1667 53.9964 49.1667 53.3333C49.1667 52.6703 48.9033 52.0344 48.4344 51.5655C47.9656 51.0967 47.3297 50.8333 46.6667 50.8333H41.6667Z" fill="#29A5EB"/>
</g>
</svg>
