<svg width="80" height="80" viewBox="0 0 80 80" fill="none" xmlns="http://www.w3.org/2000/svg">
<g id="mdi:present">
<path id="Vector" d="M30.2 6.4333C23.9 6.39997 17.7667 12.4666 20.5667 20H10C8.2319 20 6.53621 20.7023 5.28597 21.9526C4.03572 23.2028 3.33334 24.8985 3.33334 26.6666V33.3333C3.33334 34.2174 3.68453 35.0652 4.30965 35.6903C4.93478 36.3154 5.78262 36.6666 6.66668 36.6666H36.6667V26.6666H43.3333V36.6666H73.3333C74.2174 36.6666 75.0653 36.3154 75.6904 35.6903C76.3155 35.0652 76.6667 34.2174 76.6667 33.3333V26.6666C76.6667 24.8985 75.9643 23.2028 74.7141 21.9526C73.4638 20.7023 71.7681 20 70 20H59.4333C63.3333 9.09997 48.6667 1.39997 41.9 10.8L40 13.3333L38.1 10.7333C36 7.76664 33.1 6.46664 30.2 6.4333ZM30 13.3333C32.9667 13.3333 34.4667 16.9333 32.3667 19.0333C30.2667 21.1333 26.6667 19.6333 26.6667 16.6666C26.6667 15.7826 27.0179 14.9347 27.643 14.3096C28.2681 13.6845 29.116 13.3333 30 13.3333ZM50 13.3333C52.9667 13.3333 54.4667 16.9333 52.3667 19.0333C50.2667 21.1333 46.6667 19.6333 46.6667 16.6666C46.6667 15.7826 47.0179 14.9347 47.643 14.3096C48.2681 13.6845 49.116 13.3333 50 13.3333ZM6.66668 40V66.6666C6.66668 68.4347 7.36906 70.1304 8.6193 71.3807C9.86954 72.6309 11.5652 73.3333 13.3333 73.3333H66.6667C68.4348 73.3333 70.1305 72.6309 71.3807 71.3807C72.631 70.1304 73.3333 68.4347 73.3333 66.6666V40H43.3333V66.6666H36.6667V40H6.66668Z" fill="#72DB0B"/>
</g>
</svg>
