<svg width="16" height="16" viewBox="0 0 16 16" fill="none" xmlns="http://www.w3.org/2000/svg">
<g id="&#209;&#129;&#209;&#130;&#209;&#128;&#208;&#181;&#208;&#187;&#208;&#186;&#208;&#184;">
<path id="Arrow 3" opacity="0.1" d="M4.35355 0.146445C4.15829 -0.0488167 3.84171 -0.0488167 3.64645 0.146445L0.464466 3.32843C0.269204 3.52369 0.269204 3.84027 0.464466 4.03553C0.659728 4.23079 0.976311 4.23079 1.17157 4.03553L4 1.20711L6.82843 4.03553C7.02369 4.23079 7.34027 4.23079 7.53553 4.03553C7.7308 3.84027 7.7308 3.52369 7.53553 3.32843L4.35355 0.146445ZM4.5 15.5L4.5 0.499999H3.5L3.5 15.5H4.5Z" fill="#515151"/>
<path id="Arrow 4" opacity="0.1" d="M11.1464 15.3536C11.3417 15.5488 11.6583 15.5488 11.8536 15.3536L15.0355 12.1716C15.2308 11.9763 15.2308 11.6597 15.0355 11.4645C14.8403 11.2692 14.5237 11.2692 14.3284 11.4645L11.5 14.2929L8.67157 11.4645C8.47631 11.2692 8.15973 11.2692 7.96447 11.4645C7.7692 11.6597 7.7692 11.9763 7.96447 12.1716L11.1464 15.3536ZM11 0L11 15H12L12 0L11 0Z" fill="#515151"/>
</g>
</svg>
